<svg class="svg-icon" style="width: 1em; height: 1em;vertical-align: middle;fill: currentColor;overflow: hidden;" viewBox="0 0 1024 1024" version="1.1" xmlns="http://www.w3.org/2000/svg"><path d="M858.581333 858.688a490.666667 490.666667 0 1 1 0-693.909333 490.666667 490.666667 0 0 1 0 693.909333zM828.416 194.944a448 448 0 1 0 0 633.6 448 448 0 0 0 0-633.6zM457.344 696.938667a11.392 11.392 0 0 1-15.488 0L236.8 489.258667a10.666667 10.666667 0 0 1 0-15.104l15.082667-15.082667a10.666667 10.666667 0 0 1 15.082666 0l182.826667 185.194667 323.456-321.002667a10.666667 10.666667 0 0 1 15.082667 0l15.104 15.082667a10.666667 10.666667 0 0 1 0 15.082666z" fill="#333333" /></svg>