<svg className="svg-icon" style="width: 1em; height: 1em;vertical-align: middle;fill: currentColor;overflow: hidden;" viewBox="0 0 1024 1024" version="1.1" xmlns="http://www.w3.org/2000/svg"><path d="M938.666667 426.666667l0-149.333333c0-46.933333-38.4-85.333333-85.333333-85.333333l-117.333333 0c0 17.066667-14.933333 32-32 32S672 209.066667 672 192L170.666667 192c-46.933333 0-85.333333 38.4-85.333333 85.333333l0 149.333333c46.933333 0 85.333333 38.4 85.333333 85.333333 0 46.933333-38.4 85.333333-85.333333 85.333333l0 149.333333c0 46.933333 38.4 85.333333 85.333333 85.333333l501.333333 0c0-17.066667 14.933333-32 32-32s32 14.933333 32 32L853.333333 832c46.933333 0 85.333333-38.4 85.333333-85.333333l0-149.333333c-46.933333 0-85.333333-38.4-85.333333-85.333333C853.333333 465.066667 891.733333 426.666667 938.666667 426.666667zM704 757.333333c-17.066667 0-32-14.933333-32-32s14.933333-32 32-32 32 14.933333 32 32S721.066667 757.333333 704 757.333333zM704 650.666667c-17.066667 0-32-14.933333-32-32s14.933333-32 32-32 32 14.933333 32 32S721.066667 650.666667 704 650.666667zM704 544c-17.066667 0-32-14.933333-32-32s14.933333-32 32-32 32 14.933333 32 32S721.066667 544 704 544zM704 437.333333c-17.066667 0-32-14.933333-32-32s14.933333-32 32-32 32 14.933333 32 32S721.066667 437.333333 704 437.333333zM704 330.666667c-17.066667 0-32-14.933333-32-32s14.933333-32 32-32 32 14.933333 32 32S721.066667 330.666667 704 330.666667z"  /></svg>